HIERARCHY
ROOT reference
{
  OFFSET 0 0 0
  CHANNELS 6 Xposition Yposition Zposition Zrotation Xrotation Yrotation
  JOINT Hips
  {
    OFFSET 19.8941 91.4584 12.6699
    CHANNELS 3 Zrotation Xrotation Yrotation
    JOINT RightUpLeg
    {
      OFFSET -9.21136 -1.54315 -0.00338228
      CHANNELS 3 Zrotation Xrotation Yrotation
      JOINT RightLeg
      {
        OFFSET 0.100199 -41.8913 0.117885
        CHANNELS 3 Zrotation Xrotation Yrotation
        JOINT RightFoot
        {
          OFFSET -0.0312538 -39.9042 0.200326
          CHANNELS 3 Zrotation Xrotation Yrotation
          End Site
          {
            OFFSET 0 -7.69 17.5
          }
        }
      }
    }
    JOINT LeftUpLeg
    {
      OFFSET 9.2904 -1.6473 0.00344049
      CHANNELS 3 Zrotation Xrotation Yrotation
      JOINT LeftLeg
      {
        OFFSET 0.15381 -41.8817 -0.0541105
        CHANNELS 3 Zrotation Xrotation Yrotation
        JOINT LeftFoot
        {
          OFFSET 0.872932 -43.9846 -0.139608
          CHANNELS 3 Zrotation Xrotation Yrotation
          End Site
          {
            OFFSET 0 -7.69 17.5
          }
        }
      }
    }
    JOINT Spine
    {
      OFFSET 0.0768477 14.3139 0.027738
      CHANNELS 3 Zrotation Xrotation Yrotation
      JOINT Spine1
      {
        OFFSET -0.0133682 9.71866 0.00713354
        CHANNELS 3 Zrotation Xrotation Yrotation
        JOINT Spine2
        {
          OFFSET -0.0175262 10.1212 -0.00524987
          CHANNELS 3 Zrotation Xrotation Yrotation
          JOINT Spine3
          {
            OFFSET -0.00348171 9.71796 0.0104149
            CHANNELS 3 Zrotation Xrotation Yrotation
            JOINT Neck
            {
              OFFSET -0.0845439 10.3822 0.044921
              CHANNELS 3 Zrotation Xrotation Yrotation
              JOINT Head
              {
                OFFSET -0.0310878 9.44025 0.0694291
                CHANNELS 3 Zrotation Xrotation Yrotation
                End Site
                {
                  OFFSET 0 15.95 0
                }
              }
            }
            JOINT RightShoulder
            {
              OFFSET -3.20882 6.90619 -0.0326675
              CHANNELS 3 Zrotation Xrotation Yrotation
              JOINT RightArm
              {
                OFFSET -12.8514 -0.0142271 -0.0483735
                CHANNELS 3 Zrotation Xrotation Yrotation
                JOINT RightForeArm
                {
                  OFFSET -26.4475 -0.0994884 -0.035967
                  CHANNELS 3 Zrotation Xrotation Yrotation
                  JOINT RightHand
                  {
                    OFFSET -25.9226 -0.102631 -0.136889
                    CHANNELS 3 Zrotation Xrotation Yrotation
                    JOINT RightHandThumb1
                    {
                      OFFSET -2.48905 0.190105 3.12053
                      CHANNELS 3 Zrotation Xrotation Yrotation
                      JOINT RightHandThumb2
                      {
                        OFFSET -3.68274 0 0
                        CHANNELS 3 Zrotation Xrotation Yrotation
                        JOINT RightHandThumb3
                        {
                          OFFSET -2.55832 0 0
                          CHANNELS 3 Zrotation Xrotation Yrotation
                          End Site
                          {
                            OFFSET -2.194 0 0
                          }
                        }
                      }
                    }
                    JOINT RightInHandIndex
                    {
                      OFFSET -3.22368 0.508421 1.97842
                      CHANNELS 3 Zrotation Xrotation Yrotation
                      JOINT RightHandIndex1
                      {
                        OFFSET -5.21684 -0.091368 0.999158
                        CHANNELS 3 Zrotation Xrotation Yrotation
                        JOINT RightHandIndex2
                        {
                          OFFSET -3.61937 0 0
                          CHANNELS 3 Zrotation Xrotation Yrotation
                          JOINT RightHandIndex3
                          {
                            OFFSET -2.0521 0 0
                            CHANNELS 3 Zrotation Xrotation Yrotation
                            End Site
                            {
                              OFFSET -1.805 0 0
                            }
                          }
                        }
                      }
                    }
                    JOINT RightInHandMiddle
                    {
                      OFFSET -3.38211 0.517263 0.756737
                      CHANNELS 3 Zrotation Xrotation Yrotation
                      JOINT RightHandMiddle1
                      {
                        OFFSET -5.17411 -0.084 0.313895
                        CHANNELS 3 Zrotation Xrotation Yrotation
                        JOINT RightHandMiddle2
                        {
                          OFFSET -3.94947 0 0
                          CHANNELS 3 Zrotation Xrotation Yrotation
                          JOINT RightHandMiddle3
                          {
                            OFFSET -2.47579 0 0
                            CHANNELS 3 Zrotation Xrotation Yrotation
                            End Site
                            {
                              OFFSET -1.975 0 0
                            }
                          }
                        }
                      }
                    }
                    JOINT RightInHandRing
                    {
                      OFFSET -3.36516 0.537895 -0.128947
                      CHANNELS 3 Zrotation Xrotation Yrotation
                      JOINT RightHandRing1
                      {
                        OFFSET -4.63474 -0.022105 -0.478947
                        CHANNELS 3 Zrotation Xrotation Yrotation
                        JOINT RightHandRing2
                        {
                          OFFSET -3.44238 0 0
                          CHANNELS 3 Zrotation Xrotation Yrotation
                          JOINT RightHandRing3
                          {
                            OFFSET -2.3881 0 0
                            CHANNELS 3 Zrotation Xrotation Yrotation
                            End Site
                            {
                              OFFSET -1.857 0 0
                            }
                          }
                        }
                      }
                    }
                    JOINT RightInHandPinky
                    {
                      OFFSET -3.16105 0.469368 -1.20179
                      CHANNELS 3 Zrotation Xrotation Yrotation
                      JOINT RightHandPinky1
                      {
                        OFFSET -4.14105 -0.022105 -1.09053
                        CHANNELS 3 Zrotation Xrotation Yrotation
                        JOINT RightHandPinky2
                        {
                          OFFSET -2.75653 0 0
                          CHANNELS 3 Zrotation Xrotation Yrotation
                          JOINT RightHandPinky3
                          {
                            OFFSET -1.74189 0 0
                            CHANNELS 3 Zrotation Xrotation Yrotation
                            End Site
                            {
                              OFFSET -1.645 0 0
                            }
                          }
                        }
                      }
                    }
                  }
                }
              }
            }
            JOINT LeftShoulder
            {
              OFFSET 3.19355 6.9059 0.0487761
              CHANNELS 3 Zrotation Xrotation Yrotation
              JOINT LeftArm
              {
                OFFSET 12.7349 -0.00433124 -0.0458964
                CHANNELS 3 Zrotation Xrotation Yrotation
                JOINT LeftForeArm
                {
                  OFFSET 26.4064 -0.194468 0.00909971
                  CHANNELS 3 Zrotation Xrotation Yrotation
                  JOINT LeftHand
                  {
                    OFFSET 25.9027 0.0515579 -0.250056
                    CHANNELS 3 Zrotation Xrotation Yrotation
                    JOINT LeftHandThumb1
                    {
                      OFFSET 2.48905 0.190105 3.12053
                      CHANNELS 3 Zrotation Xrotation Yrotation
                      JOINT LeftHandThumb2
                      {
                        OFFSET 3.68274 0 0
                        CHANNELS 3 Zrotation Xrotation Yrotation
                        JOINT LeftHandThumb3
                        {
                          OFFSET 2.55832 0 0
                          CHANNELS 3 Zrotation Xrotation Yrotation
                          End Site
                          {
                            OFFSET 2.194 0 0
                          }
                        }
                      }
                    }
                    JOINT LeftInHandIndex
                    {
                      OFFSET 3.22368 0.508421 1.97842
                      CHANNELS 3 Zrotation Xrotation Yrotation
                      JOINT LeftHandIndex1
                      {
                        OFFSET 5.21684 -0.091368 0.999158
                        CHANNELS 3 Zrotation Xrotation Yrotation
                        JOINT LeftHandIndex2
                        {
                          OFFSET 3.61937 0 0
                          CHANNELS 3 Zrotation Xrotation Yrotation
                          JOINT LeftHandIndex3
                          {
                            OFFSET 2.0521 0 0
                            CHANNELS 3 Zrotation Xrotation Yrotation
                            End Site
                            {
                              OFFSET 1.805 0 0
                            }
                          }
                        }
                      }
                    }
                    JOINT LeftInHandMiddle
                    {
                      OFFSET 3.38211 0.517263 0.756737
                      CHANNELS 3 Zrotation Xrotation Yrotation
                      JOINT LeftHandMiddle1
                      {
                        OFFSET 5.17411 -0.084 0.313895
                        CHANNELS 3 Zrotation Xrotation Yrotation
                        JOINT LeftHandMiddle2
                        {
                          OFFSET 3.94947 0 0
                          CHANNELS 3 Zrotation Xrotation Yrotation
                          JOINT LeftHandMiddle3
                          {
                            OFFSET 2.47579 0 0
                            CHANNELS 3 Zrotation Xrotation Yrotation
                            End Site
                            {
                              OFFSET 1.975 0 0
                            }
                          }
                        }
                      }
                    }
                    JOINT LeftInHandRing
                    {
                      OFFSET 3.36516 0.537895 -0.128947
                      CHANNELS 3 Zrotation Xrotation Yrotation
                      JOINT LeftHandRing1
                      {
                        OFFSET 4.63474 -0.022105 -0.478947
                        CHANNELS 3 Zrotation Xrotation Yrotation
                        JOINT LeftHandRing2
                        {
                          OFFSET 3.44238 0 0
                          CHANNELS 3 Zrotation Xrotation Yrotation
                          JOINT LeftHandRing3
                          {
                            OFFSET 2.3881 0 0
                            CHANNELS 3 Zrotation Xrotation Yrotation
                            End Site
                            {
                              OFFSET 1.857 0 0
                            }
                          }
                        }
                      }
                    }
                    JOINT LeftInHandPinky
                    {
                      OFFSET 3.16105 0.469368 -1.20179
                      CHANNELS 3 Zrotation Xrotation Yrotation
                      JOINT LeftHandPinky1
                      {
                        OFFSET 4.14105 -0.022105 -1.09053
                        CHANNELS 3 Zrotation Xrotation Yrotation
                        JOINT LeftHandPinky2
                        {
                          OFFSET 2.75653 0 0
                          CHANNELS 3 Zrotation Xrotation Yrotation
                          JOINT LeftHandPinky3
                          {
                            OFFSET 1.74189 0 0
                            CHANNELS 3 Zrotation Xrotation Yrotation
                            End Site
                            {
                              OFFSET 1.645 0 0
                            }
                          }
                        }
                      }
                    }
                  }
                }
              }
            }
          }
        }
      }
    }
  }
}
MOTION
Frames: 2
Frame Time: 0.00416667
1.500000000000000000e+03 0.000000000000000000e+00 0.000000000000000000e+00 0.000000000000000000e+00 0.000000000000000000e+00 0.000000000000000000e+00 2.905099999999999483e+01 -2.109929999999999950e+01 -1.116420000000000101e+02 -1.902309999999999945e+01 -5.165039999999999765e+01 -1.572680000000000256e+01 -4.060919999999999419e+00 1.103480000000000061e+01 2.320400000000000063e+01 9.550360000000001293e+00 2.864559999999999995e+00 4.096189999999999998e+01 1.100409999999999933e+01 -4.042640000000000100e+01 1.876429999999999865e+01 -8.322009999999999685e-01 2.898019999999999818e+00 -1.269259999999999877e+01 -1.294609999999999950e+01 5.078750000000000320e+00 -1.492210000000000036e+01 4.833949999999999747e+00 2.117820000000000036e+01 5.866310000000000358e+00 1.356710000000000305e+00 4.589349999999999596e+00 2.064669999999999561e+00 2.178339999999999943e+00 6.811730000000000729e+00 3.601230000000000153e+00 -1.516569999999999752e+00 -9.129500000000000115e-02 -5.736219999999999652e-01 -1.538820000000000077e+00 -1.096160000000000190e-01 -5.822130000000000916e-01 -2.915709999999999624e+01 -2.781259999999999621e+00 -1.031320000000000014e+01 -6.712420000000000719e+00 -6.437409999999998966e+00 1.916740000000000421e+01 3.305639999999998935e+01 2.002619999999999578e+01 6.172620000000000573e+01 -1.499320000000000164e+02 -8.507720000000000482e+01 -1.479809999999999945e+02 9.122809999999999420e+00 -1.343670000000001030e+00 -9.574370000000000047e+00 2.818400000000000105e+01 1.072940000000000005e+01 1.915919999999999845e+01 -2.107979999999999200e-15 6.361110000000000530e-15 -1.000000000000000000e+01 5.608179999999998766e-16 3.180549999999999982e-15 -1.000000000000000000e+01 -3.180550000000000771e-15 6.361110000000000530e-15 3.180549999999999982e-15 1.998179999999999978e+01 8.718970000000000331e-01 2.396399999999999864e+00 2.400000000000000000e+01 -1.192710000000000403e-15 6.361109999999999741e-15 2.000000000000000000e+01 6.361109999999999741e-15 3.180550000000000771e-15 -3.180550000000000771e-15 6.361110000000000530e-15 3.180549999999999982e-15 2.000000000000000000e+01 4.770830000000001045e-15 9.541660000000000512e-15 2.400000000000000000e+01 2.782990000000000677e-15 1.590280000000000432e-14 2.000000000000000000e+01 3.180550000000000376e-15 -3.180549999999999193e-15 -3.180550000000000771e-15 6.361110000000000530e-15 3.180549999999999982e-15 1.997479999999999833e+01 -1.025649999999999951e+00 -2.819380000000000219e+00 2.400000000000000000e+01 6.758679999999998824e-15 -1.272219999999999993e-14 2.000000000000000000e+01 3.180549999999999982e-15 -9.541660000000000512e-15 -3.180550000000000771e-15 6.361110000000000530e-15 3.180549999999999982e-15 1.978150000000000119e+01 -3.009479999999999933e+00 -8.305149999999999366e+00 2.400000000000000000e+01 -6.808370000000000623e-15 0.000000000000000000e+00 2.000000000000000000e+01 4.770830000000000256e-15 -3.180549999999998799e-15 -2.861930000000000263e+01 -7.341400000000000148e+00 -1.371350000000000158e+01 -5.352300000000000502e+00 4.833340000000000458e+01 -9.806399999999999295e+01 3.285000000000000142e+00 -5.502589999999999293e+01 -1.626370000000000537e+00 -8.683309999999998752e+00 1.397879999999999967e+01 1.044550000000000090e+01 -2.818400000000000105e+01 1.072940000000000005e+01 -1.915919999999999845e+01 -5.946390000000014964e-16 7.951389999999999226e-15 1.000000000000000000e+01 -1.929040000000000280e-15 6.361109999999999741e-15 1.000000000000000000e+01 -5.565969999999997632e-15 3.180549999999999982e-15 1.590280000000001063e-15 -1.998179999999999978e+01 8.718970000000000331e-01 -2.396399999999999864e+00 -2.400000000000000000e+01 1.590279999999999880e-15 6.361109999999999741e-15 -2.000000000000000000e+01 2.087239999999999577e-15 -6.361110000000000530e-15 -5.565969999999997632e-15 3.180549999999999982e-15 1.590280000000001063e-15 -2.000000000000000000e+01 0.000000000000000000e+00 -3.180549999999999982e-15 -2.400000000000000000e+01 -3.180550000000000771e-15 0.000000000000000000e+00 -2.000000000000000000e+01 1.192709999999999614e-15 2.226389999999999955e-14 -5.565969999999997632e-15 3.180549999999999982e-15 1.590280000000001063e-15 -1.997479999999999833e+01 -1.025649999999999951e+00 2.819380000000000219e+00 -2.400000000000000000e+01 -3.180549999999999982e-15 3.180550000000000771e-15 -2.000000000000000000e+01 0.000000000000000000e+00 0.000000000000000000e+00 -5.565969999999997632e-15 3.180549999999999982e-15 1.590280000000001063e-15 -1.978150000000000119e+01 -3.009479999999999933e+00 8.305149999999999366e+00 -2.400000000000000000e+01 -3.180550000000000771e-15 9.541660000000000512e-15 -2.000000000000000000e+01 -6.361110000000000530e-15 3.180550000000000771e-15
1.500000000000000000e+03 0.000000000000000000e+00 0.000000000000000000e+00 0.000000000000000000e+00 0.000000000000000000e+00 0.000000000000000000e+00 2.903630000000000067e+01 -2.109149999999999991e+01 -1.116309999999999860e+02 -1.902649999999999864e+01 -5.163559999999999661e+01 -1.573179999999999801e+01 -4.072289999999998855e+00 1.104080000000000084e+01 2.320920000000000272e+01 9.550570000000000448e+00 2.857619999999999383e+00 4.095660000000000878e+01 1.099260000000000126e+01 -4.042329999999999757e+01 1.876299999999999812e+01 -8.352230000000000487e-01 2.909340000000000259e+00 -1.270149999999999757e+01 -1.294319999999999915e+01 5.084819999999999673e+00 -1.493430000000000035e+01 4.831099999999999284e+00 2.115170000000000172e+01 5.826600000000000890e+00 1.354659999999999753e+00 4.587639999999999496e+00 2.052830000000000155e+00 2.174999999999999822e+00 6.812469999999999359e+00 3.581859999999999378e+00 -1.516250000000000320e+00 -9.092889999999997919e-02 -5.731149999999999300e-01 -1.538480000000000070e+00 -1.089590000000000003e-01 -5.817290000000000516e-01 -2.915220000000000056e+01 -2.752850000000000019e+00 -1.029310000000000258e+01 -6.822050000000000836e+00 -6.384369999999998768e+00 1.900060000000000215e+01 3.339449999999999363e+01 1.987069999999999936e+01 6.165999999999999659e+01 -1.554220000000000255e+02 -8.477679999999999438e+01 -1.532230000000000132e+02 9.016579999999999373e+00 -1.297649999999999970e+00 -9.613830000000000098e+00 2.818400000000000105e+01 1.072940000000000005e+01 1.915919999999999845e+01 1.614810000000000694e-15 0.000000000000000000e+00 -1.000000000000000000e+01 6.459239999999999622e-15 0.000000000000000000e+00 -1.000000000000000000e+01 -6.361109999999999741e-15 6.361109999999999741e-15 -6.361109999999999741e-15 1.998179999999999978e+01 8.718970000000000331e-01 2.396399999999999864e+00 2.400000000000000000e+01 3.578119999999999064e-15 9.541660000000003667e-15 2.000000000000000000e+01 -1.590280000000000077e-15 1.272219999999999835e-14 -6.361109999999999741e-15 6.361109999999999741e-15 -6.361109999999999741e-15 2.000000000000000000e+01 1.590280000000001063e-15 3.180550000000000771e-15 2.400000000000000000e+01 -7.553820000000000144e-15 6.361109999999999741e-15 2.000000000000000000e+01 1.590279999999999880e-15 9.541660000000000512e-15 -6.361109999999999741e-15 6.361109999999999741e-15 -6.361109999999999741e-15 1.997479999999999833e+01 -1.025649999999999951e+00 -2.819380000000000219e+00 2.400000000000000000e+01 -1.590280000000000274e-15 9.541660000000000512e-15 2.000000000000000000e+01 0.000000000000000000e+00 9.541660000000000512e-15 -6.361109999999999741e-15 6.361109999999999741e-15 -6.361109999999999741e-15 1.978150000000000119e+01 -3.009479999999999933e+00 -8.305149999999999366e+00 2.400000000000000000e+01 -1.590279999999999485e-15 0.000000000000000000e+00 2.000000000000000000e+01 0.000000000000000000e+00 1.908330000000000147e-14 -2.858599999999999852e+01 -7.333989999999999121e+00 -1.374429999999999907e+01 -5.273710000000001230e+00 4.832150000000000034e+01 -9.821189999999999998e+01 3.410109999999999975e+00 -5.444419999999999504e+01 -1.512959999999999638e+00 -8.940839999999997900e+00 1.400079999999999991e+01 1.056229999999999869e+01 -2.818400000000000105e+01 1.072940000000000005e+01 -1.915919999999999845e+01 8.881449999999999986e-15 0.000000000000000000e+00 1.000000000000000000e+01 -9.722679999999998866e-15 4.770830000000000256e-15 1.000000000000000000e+01 -3.180549999999999193e-15 3.180549999999999982e-15 1.590280000000000274e-15 -1.998179999999999978e+01 8.718970000000000331e-01 -2.396399999999999864e+00 -2.400000000000000000e+01 1.590280000000000274e-15 -6.361109999999999741e-15 -2.000000000000000000e+01 -1.328059999999999733e-15 -9.541660000000000512e-15 -3.180549999999999193e-15 3.180549999999999982e-15 1.590280000000000274e-15 -2.000000000000000000e+01 -3.180550000000000771e-15 -9.541660000000000512e-15 -2.400000000000000000e+01 0.000000000000000000e+00 3.180549999999999193e-15 -2.000000000000000000e+01 0.000000000000000000e+00 9.541660000000002090e-15 -3.180549999999999193e-15 3.180549999999999982e-15 1.590280000000000274e-15 -1.997479999999999833e+01 -1.025649999999999951e+00 2.819380000000000219e+00 -2.400000000000000000e+01 4.770830000000000256e-15 -9.541660000000000512e-15 -2.000000000000000000e+01 -2.782990000000000677e-15 6.361109999999999741e-15 -3.180549999999999193e-15 3.180549999999999982e-15 1.590280000000000274e-15 -1.978150000000000119e+01 -3.009479999999999933e+00 8.305149999999999366e+00 -2.400000000000000000e+01 -3.180549999999999982e-15 -6.361109999999999741e-15 -2.000000000000000000e+01 1.590279999999999880e-15 3.180549999999999193e-15
